<svg width="18" height="18" viewBox="0 0 18 18" fill="none" xmlns="http://www.w3.org/2000/svg">
<path d="M9 4.83333C13.1421 4.83333 16.5 4.08714 16.5 3.16667C16.5 2.24619 13.1421 1.5 9 1.5C4.85786 1.5 1.5 2.24619 1.5 3.16667C1.5 4.08714 4.85786 4.83333 9 4.83333Z" stroke="white" stroke-width="1.41667" stroke-linecap="round" stroke-linejoin="round"/>
<path d="M1.5 3.16666C1.5 5.02499 4.72583 8.72832 6.38 10.5042C6.9868 11.1474 7.32743 11.9966 7.33333 12.8808V14.8333C7.33333 15.2754 7.50893 15.6993 7.82149 16.0118C8.13405 16.3244 8.55797 16.5 9 16.5C9.44203 16.5 9.86595 16.3244 10.1785 16.0118C10.4911 15.6993 10.6667 15.2754 10.6667 14.8333V12.8808C10.6667 11.9967 11.0175 11.1517 11.62 10.5042C13.275 8.72832 16.5 5.02582 16.5 3.16666" stroke="white" stroke-width="1.41667" stroke-linecap="round" stroke-linejoin="round"/>
</svg>
