<svg width="86" height="94" viewBox="0 0 86 94" fill="none" xmlns="http://www.w3.org/2000/svg">
<path d="M46.2448 2.36609L56.726 26.6268C56.9643 27.2425 57.3393 27.7759 57.8135 28.1737C58.2878 28.5716 58.8446 28.8199 59.4287 28.8941L82.5664 32.8242C83.2363 32.9229 83.8679 33.2381 84.3875 33.7331C84.907 34.228 85.293 34.8821 85.5003 35.6192C85.7077 36.3562 85.7279 37.1457 85.5585 37.8954C85.3892 38.6451 85.0373 39.324 84.544 39.853L67.8663 58.8232C67.4407 59.2791 67.1212 59.8498 66.937 60.4834C66.7528 61.117 66.7097 61.7934 66.8116 62.4509L70.8327 89.1301C70.9491 89.8967 70.8755 90.6854 70.6203 91.4064C70.3651 92.1274 69.9385 92.7518 69.389 93.2086C68.8395 93.6653 68.1892 93.9361 67.5122 93.99C66.8351 94.0439 66.1585 93.8789 65.5592 93.5137L44.7286 80.8921C44.1952 80.5918 43.6089 80.4357 43.0147 80.4357C42.4205 80.4357 41.8342 80.5918 41.3008 80.8921L20.4703 93.5137C19.871 93.8789 19.1943 94.0439 18.5173 93.99C17.8402 93.9361 17.1899 93.6653 16.6405 93.2086C16.091 92.7518 15.6644 92.1274 15.4091 91.4064C15.1539 90.6854 15.0803 89.8967 15.1967 89.1301L19.2178 62.1486C19.3197 61.4911 19.2766 60.8147 19.0924 60.1811C18.9082 59.5475 18.5887 58.9768 18.1631 58.5209L1.28773 39.853C0.788476 39.3095 0.437372 38.6118 0.276952 37.8442C0.116531 37.0767 0.153678 36.2722 0.383893 35.5284C0.614107 34.7845 1.02751 34.1332 1.57403 33.6532C2.12054 33.1733 2.77672 32.8853 3.46307 32.8242L26.6008 28.8941C27.1848 28.8199 27.7417 28.5716 28.2159 28.1737C28.6901 27.7759 29.0651 27.2425 29.3035 26.6268L39.7847 2.36609C40.0701 1.65949 40.5259 1.06127 41.0982 0.64202C41.6705 0.222771 42.3355 0 43.0147 0C43.6939 0 44.3589 0.222771 44.9312 0.64202C45.5036 1.06127 45.9593 1.65949 46.2448 2.36609Z" fill="#FFC71F"/>
</svg>
